<svg width="294" height="300" viewBox="0 0 294 300" fill="none" xmlns="http://www.w3.org/2000/svg">
<g filter="url(#filter0_d_0_979)">
<ellipse cx="146.959" cy="150" rx="146.959" ry="150" fill="#2D8DAB"/>
</g>
<ellipse cx="146.959" cy="143.35" rx="146.959" ry="143.35" fill="#3FB7CD"/>
<ellipse cx="146.959" cy="143.35" rx="146.959" ry="143.35" fill="url(#paint0_linear_0_979)"/>
<ellipse cx="146.959" cy="146.306" rx="112.817" ry="112.315" fill="#BABFD4"/>
<ellipse cx="146.959" cy="152.217" rx="112.817" ry="106.404" fill="url(#paint1_linear_0_979)"/>
<path d="M196.706 154.909L194.956 153.167C190.777 149.004 183.943 148.097 178.841 151.017L167.944 157.218L170.215 107.553C170.215 103.389 166.813 100 162.628 100C161.724 100 160.854 100.159 160.048 100.45L160.318 97.7846C160.318 93.5731 156.863 90.1479 152.62 90.1479C148.697 90.1479 145.406 93.0777 144.99 96.8347L137.998 138.894C137.906 139.467 136.911 139.409 136.804 139.048L128.546 105.328C127.642 102.192 124.723 100 121.447 100C119.181 100 117.074 101.015 115.663 102.786C114.257 104.556 113.745 106.834 114.266 109.03L115.871 115.82C114.957 115.746 114.039 115.868 113.165 116.162C109.908 117.242 107.922 120.479 108.448 123.899L113.31 151.724C113.31 162.702 115.243 170.825 116.866 175.703C117.789 178.486 118.258 181.413 118.258 184.403C118.258 187.006 117.895 189.596 117.175 192.098L113.406 205.236C113.193 205.979 113.343 206.777 113.807 207.395C114.276 208.011 115.006 208.375 115.784 208.375H160.318C161.116 208.375 161.86 207.994 162.324 207.352C162.792 206.71 162.918 205.883 162.667 205.132C162.643 205.067 160.574 198.707 162.531 190.055C165.015 188.049 173.709 181.011 176.83 178.173C181.991 173.48 196.13 158.981 196.73 158.365C197.672 157.401 197.662 155.861 196.706 154.909Z" fill="#3B4262"/>
<defs>
<filter id="filter0_d_0_979" x="-3" y="0" width="299.919" height="306" filterUnits="userSpaceOnUse" color-interpolation-filters="sRGB">
<feFlood flood-opacity="0" result="BackgroundImageFix"/>
<feColorMatrix in="SourceAlpha" type="matrix" values="0 0 0 0 0 0 0 0 0 0 0 0 0 0 0 0 0 0 127 0" result="hardAlpha"/>
<feOffset dy="3"/>
<feGaussianBlur stdDeviation="1.5"/>
<feColorMatrix type="matrix" values="0 0 0 0 0 0 0 0 0 0 0 0 0 0 0 0 0 0 0.196706 0"/>
<feBlend mode="normal" in2="BackgroundImageFix" result="effect1_dropShadow_0_979"/>
<feBlend mode="normal" in="SourceGraphic" in2="effect1_dropShadow_0_979" result="shape"/>
</filter>
<linearGradient id="paint0_linear_0_979" x1="0" y1="0" x2="0" y2="286.699" gradientUnits="userSpaceOnUse">
<stop stop-color="white" stop-opacity="0.0966455"/>
<stop offset="1" stop-color="white" stop-opacity="0.01"/>
</linearGradient>
<linearGradient id="paint1_linear_0_979" x1="257.907" y1="258.621" x2="257.907" y2="49.3403" gradientUnits="userSpaceOnUse">
<stop stop-color="#F3F3F3"/>
<stop offset="1" stop-color="#DADADA"/>
</linearGradient>
</defs>
</svg>
